<svg enable-background="new 0 0 512 512" height="512" viewBox="0 0 512 512" width="512" xmlns="http://www.w3.org/2000/svg"><circle cx="256" cy="256" fill="#f3cf3d" r="256"/><path d="m511.639 269.621-107.197-105.141-5.775 26.187-90.549-62.374-107.118 9.707-4.906 17.595-5.094 28.738-26.052 125.282 19.222 19.222-77.344 53.324 129.739 129.109c6.415.482 12.896.73 19.435.73 136.815 0 248.558-107.327 255.639-242.379z" opacity=".1"/><path d="m199.015 169.702v-18.98c0-5.926 4.986-10.729 11.139-10.729h91.693c6.153 0 11.141 4.804 11.141 10.729v18.98h7.496v-24.532c0-6.961-5.644-12.604-12.604-12.604h-103.758c-6.961 0-12.604 5.643-12.604 12.604v24.532z" fill="#42536c"/><path d="m204.122 129.414h105.854v13.975h-105.854z" fill="#57687c"/><path d="m106.319 164.704h299.361v217.882h-299.361z" fill="#42536c"/><path d="m106.319 254.876c40.465 11.713 92.679 18.769 149.681 18.769s109.217-7.056 149.681-18.769v-90.172h-299.362z" fill="#57687c"/><g fill="#e6e7e8"><path d="m247.223 281.563h17.557v2.886h-17.557z"/><path d="m247.223 246.677v32.411h17.557v-32.411zm8.777 30.569c-1.678 0-3.039-1.36-3.039-3.038 0-1.679 1.361-3.039 3.039-3.039s3.039 1.36 3.039 3.039c0 1.678-1.361 3.038-3.039 3.038z"/></g></svg>